<?xml version="1.0" encoding="utf-8"?>
<!-- Generator: Adobe Illustrator 19.2.1, SVG Export Plug-In . SVG Version: 6.00 Build 0)  -->
<svg version="1.1" id="Calque_1" xmlns="http://www.w3.org/2000/svg" xmlns:xlink="http://www.w3.org/1999/xlink" x="0px" y="0px"
	 viewBox="0 0 100 100" style="enable-background:new 0 0 100 100;" xml:space="preserve">
<path d="M85.8,26.6c-0.2-0.2-0.5-0.4-0.8-0.3L14.7,39.8l0,0l0,0c-0.1,0-0.2,0.1-0.3,0.1c0,0,0,0-0.1,0s-0.1,0.1-0.2,0.2l0,0
	c0,0,0,0,0,0.1L14,40.3l0,0l0,0v0.1v0.1l0,0c0,0,0,0,0,0.1v0.1v0.1c0,0,0,0,0,0.1c0,0,0,0.1,0.1,0.1c0,0,0,0,0,0.1
	c0,0,0.1,0,0.1,0.1l0,0c0,0,0,0,0.1,0.1l46.1,32.4c0.1,0.1,0.3,0.1,0.4,0.1c0.1,0,0.1,0,0.2,0c0.2-0.1,0.4-0.2,0.5-0.4l3.2-6.1
	l9.4,4.8c0.1,0.1,0.2,0.1,0.4,0.1c0.2,0,0.3,0,0.4-0.1c0.2-0.2,0.4-0.4,0.3-0.7l-1.8-20.5l12.4-23.4C86,27.2,86,26.8,85.8,26.6z
	 M60.6,71.8L24.5,46.4l38.9,20.1L60.6,71.8z M64.8,65.5L64.8,65.5L64.8,65.5L19.7,42.1L72,51.3L73.6,70L64.8,65.5z M72.3,49.8
	l-27-4.7l-26.2-4.6l64.7-12.4L72.3,49.8z"/>
</svg>
