<?xml version="1.0" encoding="utf-8"?>
<!-- Generator: Adobe Illustrator 19.2.1, SVG Export Plug-In . SVG Version: 6.00 Build 0)  -->
<svg version="1.1" id="Calque_1" xmlns="http://www.w3.org/2000/svg" xmlns:xlink="http://www.w3.org/1999/xlink" x="0px" y="0px"
	 viewBox="0 0 100 100" style="enable-background:new 0 0 100 100;" xml:space="preserve">
<path d="M79.4,44c-0.2-0.2-0.5-0.4-0.8-0.3l-4,0.8l0.3-4l0,0c0-0.1,0-0.2-0.1-0.3l0,0c0-0.1-0.1-0.2-0.2-0.3l0,0l0,0l0,0L62,29.6
	c-0.2-0.2-0.6-0.2-0.9-0.1l-53,28.6l0,0l0,0l0,0c0,0,0,0-0.1,0.1c0,0-0.1,0-0.1,0.1l0,0l0,0v0.1v0.1c0,0,0,0,0,0.1l0,0l0,0
	c0,0,0,0,0,0.1v0.1l0,0c0,0,0,0,0,0.1c0,0,0,0,0,0.1l0,0l0,0l0,0l0,0c0,0,0,0,0,0.1c0,0,0,0,0,0.1l0,0l0,0c0,0,0,0,0.1,0.1
	c0,0,0,0,0.1,0.1c0,0,0,0,0.1,0l0,0l0,0l0,0c0,0,0,0,0.1,0l0,0c0,0,0,0,0.1,0l0,0L72,70.5h0.1c0.3,0,0.7-0.2,0.7-0.6l2.1-7.9
	l16.4,0.6l0,0c0.3,0,0.5-0.2,0.7-0.4c0.1-0.3,0.1-0.6-0.1-0.8L79.4,44z M29.8,53.6l43.5-12.1l-0.2,3.3L29.8,53.6z M61.5,31.1l11,9.1
	L15,56.2L61.5,31.1z M71.6,69L20,60l53.4,2L71.6,69z M15,58.2l63.5-12.9l11.4,15.8L15,58.2z"/>
</svg>
