<?xml version="1.0" encoding="utf-8"?>
<!-- Generator: Adobe Illustrator 19.2.1, SVG Export Plug-In . SVG Version: 6.00 Build 0)  -->
<svg version="1.1" id="Calque_1" xmlns="http://www.w3.org/2000/svg" xmlns:xlink="http://www.w3.org/1999/xlink" x="0px" y="0px"
	 viewBox="0 0 100 100" style="enable-background:new 0 0 100 100;" xml:space="preserve">
<path d="M85,26.3l-5.2,1c-0.2-0.1-0.4-0.2-0.6-0.2L14.7,39.8l0,0l0,0c-0.1,0-0.2,0.1-0.3,0.1l0,0c-0.1,0-0.1,0.1-0.2,0.2l0,0
	c0,0,0,0,0,0.1l-0.1,0.1l0,0l0,0v0.1v0.1l0,0c0,0,0,0,0,0.1v0.1v0.1c0,0,0,0,0,0.1c0,0,0,0.1,0.1,0.1c0,0,0,0,0,0.1
	c0,0,0.1,0,0.1,0.1l0,0c0,0,0,0,0,0.1l42.2,30c0.1,0.1,0.3,0.1,0.4,0.1c0.1,0,0.1,0,0.2,0l3.2,2.3c0.1,0.1,0.3,0.1,0.4,0.1
	c0.1,0,0.1,0,0.2,0c0.2-0.1,0.4-0.2,0.5-0.4l3.2-6.1l9.4,4.8c0.1,0.1,0.2,0.1,0.4,0.1c0.2,0,0.3,0,0.4-0.1c0.2-0.2,0.4-0.4,0.3-0.7
	l-1.8-20.5l12.4-23.4c0.1-0.3,0.1-0.6-0.1-0.8C85.6,26.4,85.3,26.3,85,26.3z M19.6,42.1l35.6,6.2L59.6,63L19.6,42.1z M55.6,46.9
	L19,40.5l57.5-11.2L55.6,46.9z M24.5,46.4l30.6,16l1,6.4L24.5,46.4z M60.6,71.8l-2.9-2l-1-6.4l3.7,2c0.1,0.1,0.2,0.1,0.4,0.1
	c0.1,0,0.2,0,0.3-0.1l2.3,1.2L60.6,71.8z M64.8,65.5L64.8,65.5L64.8,65.5l-3.4-1.8l-4.5-15L72,51.3L73.6,70L64.8,65.5z M72.3,49.8
	l-14.7-2.6L79.3,29l4.5-0.9L72.3,49.8z"/>
</svg>
