<?xml version="1.0" encoding="utf-8"?>
<!-- Generator: Adobe Illustrator 19.2.1, SVG Export Plug-In . SVG Version: 6.00 Build 0)  -->
<svg version="1.1" id="Calque_1" xmlns="http://www.w3.org/2000/svg" xmlns:xlink="http://www.w3.org/1999/xlink" x="0px" y="0px"
	 viewBox="0 0 100 100" style="enable-background:new 0 0 100 100;" xml:space="preserve">
<path d="M85.4,47.4l-16-3.4c-0.1,0-0.3,0-0.4,0l-7.9,2.5l1-3.7c0-0.1,0-0.2,0-0.3c0,0,0,0,0-0.1s0-0.2-0.1-0.2l0,0L57.4,34
	c-0.1-0.2-0.4-0.4-0.7-0.4H46.3c-0.2,0-0.4,0.1-0.5,0.2L14.2,61.3l0,0c0,0,0,0.1-0.1,0.1L14,61.5l0,0l0,0l0,0v0.1v0.1l0,0l0,0l0,0
	v0.1l0,0l0,0l0,0l0,0l0,0c0,0,0,0,0,0.1l0,0c0,0,0,0,0,0.1c0,0,0,0,0,0.1l0,0l0,0l0,0l0.1,0.1c0,0,0,0,0.1,0.1c0,0,0,0,0.1,0l0,0
	l0,0c0,0,0,0,0.1,0h0.1l0,0L55,66c0,0,0,0,0.1,0c0.3,0,0.5-0.1,0.6-0.3l4.8-7.1L80.6,57c0.3,0,0.5-0.2,0.6-0.4l4.6-8.3
	c0.1-0.2,0.1-0.5,0-0.7C85.9,47.6,85.7,47.5,85.4,47.4z M31.4,55.8l28.8-11.9L59.4,47L31.4,55.8z M46.6,35.2h9.7l4,7l-26.5,11
	l-15,6.2L46.6,35.2z M54.8,64.7l-31.1-2.8L58.6,59L54.8,64.7z M80.2,55.8l-58.6,4.8l47.8-15l14.8,3.2L80.2,55.8z"/>
</svg>
