<?xml version="1.0" encoding="utf-8"?>
<!-- Generator: Adobe Illustrator 19.2.1, SVG Export Plug-In . SVG Version: 6.00 Build 0)  -->
<svg version="1.1" id="Calque_1" xmlns="http://www.w3.org/2000/svg" xmlns:xlink="http://www.w3.org/1999/xlink" x="0px" y="0px"
	 viewBox="0 0 100 100" style="enable-background:new 0 0 100 100;" xml:space="preserve">
<path d="M17.7,74.3L17.7,74.3C17.7,74.4,17.7,74.4,17.7,74.3c0,0.1,0,0.1,0,0.2l0,0v0.1l0,0l0,0c0,0,0,0,0,0.1c0,0,0,0,0,0.1v0.1
	l0,0c0,0,0,0,0,0.1c0,0,0,0,0,0.1l0,0l0,0c0,0,0,0,0,0.1l0,0l0,0l0,0l0,0l0,0c0,0,0,0,0.1,0l0,0c0,0,0,0,0.1,0l0,0
	c0.1,0,0.2,0,0.2,0l0,0l0,0l0,0c0.1,0,0.1,0,0.2,0L71.5,62c0.2,0,0.3-0.1,0.4-0.3l10.3-12.6c0.2-0.3,0.2-0.6,0-0.9l-5.4-7.9l0,0
	l-0.1-0.1l-0.1-0.1c0,0-0.1,0-0.1-0.1h-0.1c-0.1,0-0.1,0-0.2,0h-0.1l0,0l-15.5,3.8l-0.7-17.3c0-0.1,0-0.1,0-0.2l0,0l0,0
	c0-0.1-0.1-0.2-0.2-0.3l0,0c-0.1-0.1-0.2-0.1-0.2-0.1s0,0-0.1,0l0,0l-4.6-1c-0.2-0.1-0.5,0-0.7,0.2c-10.5,9.3-10.7,9.6-10.7,9.7
	c-0.2,0.3-24.5,37.9-25.5,39.5l0,0C17.7,74.1,17.7,74.2,17.7,74.3C17.7,74.2,17.7,74.2,17.7,74.3z M59.1,44.4L23,70.2l35.4-41.7
	L59.1,44.4z M70.9,60.6L23.5,72.5L76,41.8l4.6,6.8L70.9,60.6z M32.2,65.6L46.9,55l13.2-9.5l11.1-2.7L32.2,65.6z M44.5,35.5
	c0.4-0.4,6.2-5.6,10.2-9.2l3,0.7L25.5,65C33,53.4,44.4,35.8,44.5,35.5z"/>
</svg>
