<?xml version="1.0" encoding="utf-8"?>
<!-- Generator: Adobe Illustrator 19.2.1, SVG Export Plug-In . SVG Version: 6.00 Build 0)  -->
<svg version="1.1" id="Calque_1" xmlns="http://www.w3.org/2000/svg" xmlns:xlink="http://www.w3.org/1999/xlink" x="0px" y="0px"
	 viewBox="0 0 100 100" style="enable-background:new 0 0 100 100;" xml:space="preserve">
<path d="M77.2,45.6c-0.2-0.2-0.5-0.4-0.8-0.3L72.6,46l0.3-4.7l0,0c0-0.1,0-0.2,0-0.3l0,0c0-0.1-0.1-0.1-0.1-0.2c0,0,0,0-0.1-0.1
	c0,0,0,0,0-0.1l-11-9.3c-0.2-0.2-0.6-0.2-0.9-0.1l-9.7,5.2c-0.2-0.1-0.4-0.1-0.6,0L11.3,58l0,0l0,0c0,0,0,0-0.1,0c0,0,0,0-0.1,0.1
	l0,0c0,0,0,0-0.1,0.1l0,0c0,0,0,0,0,0.1c0,0,0,0,0,0.1c0,0,0,0,0,0.1c0,0,0,0,0,0.1l0,0l0,0c0,0,0,0,0,0.1v0.1l0,0c0,0,0,0,0,0.1
	c0,0,0,0,0,0.1l0,0l0,0l0,0l0,0c0,0,0,0,0,0.1c0,0,0,0,0,0.1l0,0c0,0,0,0,0.1,0.1c0,0,0,0,0.1,0.1c0,0,0,0,0.1,0l0,0l0,0l0,0
	c0,0,0,0,0.1,0l0,0c0,0,0,0,0.1,0l0,0l50.3,8.3h0.1c0.2,0,0.4-0.1,0.5-0.2l8,1.3h0.1c0.3,0,0.7-0.2,0.7-0.6l1.6-5.9l1.5,0.1l0,0
	c0.2,0,0.4-0.1,0.5-0.2L88,62.8l0,0c0.3,0,0.5-0.2,0.7-0.4c0.1-0.3,0.1-0.6-0.1-0.8L77.2,45.6z M65.8,47.4c-0.2-0.2-0.4-0.2-0.7-0.2
	l-2.3,0.5v-2.8l8.4-2.4l-0.2,4L65.8,47.4z M18,58.2l47-9.4l8,11.9L18,58.2z M61.4,66l-36.5-6l37.3,1.7L61.4,66z M31,54l30.3-8.5V48
	L31,54z M61.1,33l9.5,8L62,43.5l-9.4-6L61.1,33z M50.8,38.2l9.4,6L18,56L50.8,38.2z M70.1,67.1L62.9,66l0.7-4.2l7.8,0.4L70.1,67.1z
	 M74.8,60.5l-8-11.7l9.5-1.8l10.5,14L74.8,60.5z"/>
</svg>
