<?xml version="1.0" encoding="utf-8"?>
<!-- Generator: Adobe Illustrator 19.2.1, SVG Export Plug-In . SVG Version: 6.00 Build 0)  -->
<svg version="1.1" id="Calque_1" xmlns="http://www.w3.org/2000/svg" xmlns:xlink="http://www.w3.org/1999/xlink" x="0px" y="0px"
	 viewBox="0 0 100 100" style="enable-background:new 0 0 100 100;" xml:space="preserve">
<path d="M13.8,65.3L13.8,65.3v0.2v0.1c0,0,0,0,0,0.1l0,0v0.1c0,0,0,0,0,0.1l0,0c0,0,0,0,0,0.1l0,0l0,0c0,0,0,0.1,0.1,0.1
	c0,0,0,0,0.1,0.1l0.1,0.1l0,0h0.1c0,0,0.1,0,0.2,0c0,0,0,0,0.1,0l55.7,5.1c0,0,0,0,0.1,0c0.2,0,0.5-0.1,0.6-0.3l14.6,1.3
	c0,0,0,0,0.1,0c0.2,0,0.5-0.1,0.6-0.3c0.2-0.2,0.2-0.5,0.1-0.7l-8.5-20.7c-0.1-0.3-0.5-0.5-0.9-0.5L73.4,51l1-5.7c0-0.1,0-0.2,0-0.4
	v-0.1c0,0,0-0.1-0.1-0.1l-12-17c-0.1-0.2-0.3-0.3-0.5-0.3s-0.4,0-0.6,0.2l-9.5,7.5c0,0,0,0-0.1,0c-0.2,0-0.4,0-0.6,0.2L14,65l0,0
	c0,0,0,0-0.1,0.1l-0.1,0.1C13.8,65.2,13.8,65.2,13.8,65.3L13.8,65.3z M51.3,37.1L60,49.4L18.4,63.5L51.3,37.1z M32.5,60.4L60.4,51
	l-0.2,2.5L32.5,60.4z M19.1,65.3l43.6-10.8L69,69.9L19.1,65.3z M84.3,70.8l-13.7-1.2l-6.1-14.9l12.1-2.8L84.3,70.8z M63.9,53.3
	L63.9,53.3c-0.2-0.4-0.5-0.6-0.9-0.5l-1.2,0.3l0.2-3l10.5-3.6l-0.9,5L63.9,53.3z M61.4,29.4l10.9,15.5l-10.9,3.8l-8.7-12.3
	L61.4,29.4z"/>
</svg>
