<?xml version="1.0" encoding="utf-8"?>
<!-- Generator: Adobe Illustrator 19.2.1, SVG Export Plug-In . SVG Version: 6.00 Build 0)  -->
<svg version="1.1" id="Calque_1" xmlns="http://www.w3.org/2000/svg" xmlns:xlink="http://www.w3.org/1999/xlink" x="0px" y="0px"
	 viewBox="0 0 100 100" style="enable-background:new 0 0 100 100;" xml:space="preserve">
<path d="M86.2,71.4l-8.5-20.7c-0.1-0.3-0.5-0.5-0.9-0.5L73.3,51l1-5.7c0-0.1,0-0.2,0-0.4v-0.1c0,0,0-0.1-0.1-0.1l-12-17
	c-0.1-0.2-0.3-0.3-0.5-0.3s-0.4,0-0.6,0.2l-2.4,1.9c-0.2-0.1-0.5,0-0.7,0.1L14,65l0,0c0,0,0,0-0.1,0.1l-0.1,0.1c0,0,0,0,0,0.1v0.1
	v0.1v0.1v0.1c0,0,0,0,0,0.1l0,0v0.1c0,0,0,0,0,0.1l0,0c0,0,0,0,0,0.1l0,0l0,0c0,0,0,0.1,0.1,0.1c0,0,0,0.1,0.1,0.1l0.1,0.1l0,0h0.1
	c0,0,0.1,0,0.2,0c0,0,0,0,0.1,0l66.1,6c0,0,0,0,0.1,0c0.2,0,0.4-0.1,0.6-0.2l4.3,0.3c0,0,0,0,0.1,0c0.2,0,0.5-0.1,0.6-0.3
	C86.3,71.9,86.3,71.7,86.2,71.4z M53.2,55.8l-0.5-0.3c-0.2-0.1-0.4-0.1-0.6-0.1l-0.6,0.1l-0.3-1.8l0,0l21.2-7.3l-0.9,5L53.2,55.8z
	 M49.9,54.8l0.2,1.2l-16,4L49.9,54.8z M61.4,29.4l10.9,15.5l-20.4,7l7-20.6L61.4,29.4z M56.9,32.6l-7,20.5l-3.4,1.1l-28.2,9.3
	L56.9,32.6z M19.1,65.3l33.1-8.2l24.7,13.4L19.1,65.3z M80.2,70.5l-25-13.6l21.3-5l7.8,18.9L80.2,70.5z"/>
</svg>
