<?xml version="1.0" encoding="utf-8"?>
<!-- Generator: Adobe Illustrator 19.2.1, SVG Export Plug-In . SVG Version: 6.00 Build 0)  -->
<svg version="1.1" id="Calque_1" xmlns="http://www.w3.org/2000/svg" xmlns:xlink="http://www.w3.org/1999/xlink" x="0px" y="0px"
	 viewBox="0 0 100 100" style="enable-background:new 0 0 100 100;" xml:space="preserve">
<path d="M72.7,45.4C72.7,45.3,72.7,45.3,72.7,45.4l-0.1-0.2L61.4,29.3c-0.1-0.2-0.3-0.3-0.5-0.3s-0.4,0-0.6,0.2L16.4,64l0,0
	c0,0,0,0-0.1,0.1l-0.1,0.1c0,0,0,0,0,0.1v0.1v0.1v0.1v0.1c0,0,0,0,0,0.1l0,0v0.1c0,0,0,0,0,0.1l0,0c0,0,0,0,0,0.1l0,0l0,0
	c0,0,0,0.1,0.1,0.1c0,0,0,0,0.1,0.1l0.1,0.1l0,0h0.1c0.1,0,0.1,0,0.2,0c0,0,0,0,0.1,0L83,71c0,0,0,0,0.1,0c0.2,0,0.5-0.1,0.6-0.3
	c0.2-0.2,0.2-0.5,0.1-0.7l-7.9-19.3c-0.1-0.3-0.5-0.5-0.9-0.5L71.8,51l0.9-5.2v-0.1C72.7,45.6,72.7,45.5,72.7,45.4z M60.6,30.9
	l10.1,14.4L20.9,62.4L60.6,30.9z M81.9,69.4l-60.1-5.1L74.7,52L81.9,69.4z M31.4,60.4L71,46.8l-0.8,4.6L31.4,60.4z"/>
</svg>
