<?xml version="1.0" encoding="utf-8"?>
<!-- Generator: Adobe Illustrator 19.2.1, SVG Export Plug-In . SVG Version: 6.00 Build 0)  -->
<svg version="1.1" id="Calque_1" xmlns="http://www.w3.org/2000/svg" xmlns:xlink="http://www.w3.org/1999/xlink" x="0px" y="0px"
	 viewBox="0 0 100 100" style="enable-background:new 0 0 100 100;" xml:space="preserve">
<path d="M15.5,52.1l14,6.2L35,73.7l0,0c0,0,0,0.1,0.1,0.1c0,0,0,0.1,0.1,0.1c0,0,0.1,0,0.1,0.1l0.1,0.1l0,0l0,0
	c0.1,0,0.2,0.1,0.3,0.1s0.2,0,0.3,0l0,0c0.1,0,0.1-0.1,0.2-0.1c0,0,0.1,0,0.1-0.1l0,0l7.9-7.7l11.4,5c0.1,0,0.2,0.1,0.3,0.1
	c0.3,0,0.5-0.1,0.6-0.4l28.4-44l0,0v-0.1v-0.1l0,0c0,0,0,0,0-0.1v-0.1v-0.1l0,0c0,0,0,0,0-0.1v-0.1c0,0,0,0,0-0.1l0,0l0,0l0,0l0,0
	l0,0l0,0c0,0,0,0,0-0.1l0,0l0,0c0,0,0,0-0.1,0h-0.1l0,0l0,0c0,0,0,0-0.1,0h-0.1h-0.1l0,0c0,0,0,0-0.1,0h-0.1c0,0,0,0-0.1,0l0,0l0,0
	L15.5,50.7c-0.3,0.1-0.5,0.4-0.5,0.7S15.2,52,15.5,52.1z M75,32.8L37.2,62.1c-0.1,0.1-0.2,0.2-0.2,0.3v0.1v0.1l-1.5,8L31,58.1
	L75,32.8z M36.9,71.2l1.4-7.5l4.4,1.9L36.9,71.2z M55.6,69.7l-11.3-4.9l0,0l-5.1-2.2L72,37.2l9.2-7.2L55.6,69.7z M76.2,30.3L30,56.8
	l-12.1-5.4L76.2,30.3z"/>
</svg>
