<?xml version="1.0" encoding="utf-8"?>
<!-- Generator: Adobe Illustrator 19.2.1, SVG Export Plug-In . SVG Version: 6.00 Build 0)  -->
<svg version="1.1" id="Calque_1" xmlns="http://www.w3.org/2000/svg" xmlns:xlink="http://www.w3.org/1999/xlink" x="0px" y="0px"
	 viewBox="0 0 100 100" style="enable-background:new 0 0 100 100;" xml:space="preserve">
<path d="M26,56.7L26,56.7c0.1,0.1,0.2,0.1,0.2,0.2c0,0,0,0,0.1,0c0,0,0,0,0.1,0l2.1,0.6l-1.5,1c-0.1,0.1-0.2,0.2-0.3,0.3l-7.6,14.3
	c-0.1,0.3-0.1,0.6,0,0.8c0.1,0.2,0.4,0.3,0.6,0.3h0.1l14.6-2h0.1h0.1c0.1,0,0.2-0.1,0.2-0.1l9.4-9l4.3,0.8h0.1
	c0.2,0,0.4-0.1,0.6-0.3L82.1,27l0,0l0,0c0,0,0-0.1,0.1-0.1l0,0c0,0,0-0.1,0.1-0.1l0,0l0,0v-0.1v-0.1c0,0,0,0,0-0.1l0,0v-0.1v-0.1
	l0,0l0,0c0,0,0,0,0-0.1l0,0l0,0c0,0,0,0,0-0.1l0,0c0,0,0,0-0.1-0.1l0,0l0,0c0,0,0,0-0.1,0l0,0H82h-0.1l0,0l0,0h-0.1l0,0h-0.1l0,0
	l0,0l-51.5,6.8c-0.1,0-0.2,0-0.2,0.1c0,0,0,0-0.1,0S29.8,33,29.8,33l0,0L17.9,46.4c-0.2,0.3-0.2,0.7,0,1L26,56.7z M47.3,44.2
	L32.1,33.9l45.3-6l-19,10.3L47.3,44.2z M37.3,67.6l10.6-19.9l28-16.9L37.3,67.6z M28.6,56L53,42.8l-6.1,3.7l0,0l-16.7,10L28.6,56z
	 M28,59.7l17.4-10.5L33.9,70.7l-12.8,1.8L28,59.7z M48.5,62.2l-2.7-0.5l21.9-20.9L48.5,62.2z M30.2,34.4L45.7,45l-19,10.3l-7.2-8.4
	L30.2,34.4z"/>
</svg>
