<?xml version="1.0" encoding="utf-8"?>
<!-- Generator: Adobe Illustrator 19.2.1, SVG Export Plug-In . SVG Version: 6.00 Build 0)  -->
<svg version="1.1" id="Calque_1" xmlns="http://www.w3.org/2000/svg" xmlns:xlink="http://www.w3.org/1999/xlink" x="0px" y="0px"
	 viewBox="0 0 100 100" style="enable-background:new 0 0 100 100;" xml:space="preserve">
<path d="M27.3,45.2l-1.7,20.9l0,0c0,0.1,0,0.1,0,0.2c0,0,0,0,0,0.1s0.1,0.2,0.1,0.2l0,0c0.1,0.1,0.2,0.2,0.3,0.2h0.1
	c0.1,0,0.1,0.1,0.2,0.1c0,0,0,0,0.1,0l0,0l0,0l0,0c0.1,0,0.2,0,0.3-0.1l0,0L39,61.7l3.4,4.3c0.1,0.1,0.3,0.2,0.5,0.3L56,69h0.1l0,0
	c0.1,0,0.2,0,0.3-0.1c0.1,0,0.2-0.1,0.2-0.2l26.3-25.2l0,0l0,0c0,0,0,0,0.1-0.1l0.1-0.1c0,0,0,0,0.1,0c0,0,0,0,0-0.1l0.1-0.1
	c0,0,0,0,0-0.1v-0.1c0-0.1,0-0.1,0-0.2c0,0,0,0,0-0.1l0,0l0,0v-0.1v-0.1c0,0,0,0,0-0.1s0-0.1-0.1-0.2c0,0,0-0.1-0.1-0.1L83,41.9
	c0,0,0,0-0.1-0.1c0,0-0.1,0-0.1-0.1c0,0-0.1,0-0.1-0.1c0,0,0,0-0.1,0L28.7,31c-0.1,0-0.2,0-0.3,0c0,0,0,0-0.1,0h-0.1L17,35.2
	c-0.3,0.1-0.4,0.3-0.5,0.6s0.1,0.5,0.3,0.7L27.3,45.2z M75.3,43.9l-16.9,4.3c-0.1,0-0.1,0-0.2,0.1l-4.9,1.3l1.8-4.9L75.3,43.9z
	 M28.8,45.7l24.6-0.9L51.5,50l-17.2,4.4l0,0c-0.1,0-0.2,0.1-0.3,0.2c0,0,0,0-0.1,0.1c0,0,0,0-0.1,0.1l-6.6,8.9L28.8,45.7z M80,44.4
	l-6.5,6.2L57.2,66.2l2.1-16.5L80,44.4z M28.6,64.5l5.9-8l3.3,4.2L28.6,64.5z M35.8,55.6L57.6,50l-2.2,17.3L43.3,65L35.8,55.6z
	 M54.7,43.1l-19.9-9.3l41.5,8.5L54.7,43.1z M28.5,32.6l22.8,10.6l-23,0.9l-9.5-7.9L28.5,32.6z"/>
</svg>
