<?xml version="1.0" encoding="utf-8"?>
<!-- Generator: Adobe Illustrator 19.2.1, SVG Export Plug-In . SVG Version: 6.00 Build 0)  -->
<svg version="1.1" id="Calque_1" xmlns="http://www.w3.org/2000/svg" xmlns:xlink="http://www.w3.org/1999/xlink" x="0px" y="0px"
	 viewBox="0 0 100 100" style="enable-background:new 0 0 100 100;" xml:space="preserve">
<path d="M83.5,42.7L83.5,42.7C83.5,42.6,83.5,42.6,83.5,42.7L83.5,42.7c0-0.1,0-0.1,0-0.2c0,0,0,0,0-0.1l0,0l0,0l0,0l0,0l0,0l0,0
	l0,0c0,0,0,0-0.1,0c0,0,0,0-0.1,0l0,0c0,0,0,0-0.1,0h-0.1c0,0,0,0-0.1,0L28.7,31c-0.1,0-0.3,0-0.4,0L17,35.2
	c-0.3,0.1-0.4,0.3-0.5,0.6s0.1,0.5,0.3,0.7l10.5,8.7l-1.7,20.9l0,0c0,0.1,0,0.1,0,0.2c0,0,0,0,0,0.1s0.1,0.2,0.1,0.2l0,0
	c0.1,0.1,0.2,0.2,0.3,0.2h0.1c0.1,0,0.1,0,0.2,0.1c0,0,0,0,0.1,0l0,0l0,0l0,0c0.1,0,0.2,0,0.3-0.1l0,0L39,61.7l3.5,4.3
	c0.1,0.1,0.3,0.2,0.5,0.3L56.1,69h0.1c0.2,0,0.4-0.1,0.5-0.2l26.6-25.4l0,0c0,0,0,0,0.1-0.1l0,0c0,0,0,0,0.1-0.1l0,0l0,0v-0.1V43
	l0,0l0,0l0,0C83.5,42.9,83.5,42.8,83.5,42.7C83.5,42.8,83.5,42.8,83.5,42.7C83.5,42.8,83.5,42.7,83.5,42.7z M34.3,54.4
	c-0.1,0-0.2,0.1-0.3,0.2c0,0,0,0-0.1,0.1c0,0,0,0-0.1,0.1l-6.6,8.9l1.5-17.9L75.5,44L34.3,54.4z M28.6,32.6l47.7,9.7l-48,1.8
	l-9.5-7.9L28.6,32.6z M28.5,64.4l5.9-8l3.4,4.2L28.5,64.4z M56,67.4L43.4,65l-7.5-9.4l27.7-7.1l16.6-4.2L56,67.4z"/>
</svg>
