<?xml version="1.0" encoding="utf-8"?>
<!-- Generator: Adobe Illustrator 19.2.1, SVG Export Plug-In . SVG Version: 6.00 Build 0)  -->
<svg version="1.1" id="Calque_1" xmlns="http://www.w3.org/2000/svg" xmlns:xlink="http://www.w3.org/1999/xlink" x="0px" y="0px"
	 viewBox="0 0 100 100" style="enable-background:new 0 0 100 100;" xml:space="preserve">
<path d="M18.6,46.7l13.5,4.5l6.5,20.3l0,0c0,0,0,0.1,0.1,0.1c0,0,0,0.1,0.1,0.1c0,0,0,0,0.1,0.1l0.1,0.1l0,0l0,0
	c0.1,0.1,0.2,0.1,0.3,0.1s0.2,0,0.2,0l0,0c0,0,0.1,0,0.1-0.1l0.1-0.1l0,0l13.2-13.5l8.6,2.9c0.1,0,0.2,0,0.2,0
	c0.3,0,0.5-0.1,0.7-0.4L81.5,29c0,0,0,0,0-0.1c0,0,0,0,0-0.1c0,0,0,0,0-0.1v-0.1v-0.1c0,0,0,0,0-0.1v-0.1c0,0,0,0,0-0.1l0,0l0,0l0,0
	c0,0,0-0.1-0.1-0.1c0,0,0-0.1-0.1-0.1l0,0l0,0l0,0c0,0,0,0-0.1,0c0,0-0.1,0-0.1-0.1l0,0H81l0,0h-0.1c0,0,0,0-0.1,0h-0.1h-0.1l0,0
	L18.7,45.2c-0.3,0.1-0.6,0.4-0.6,0.7C18.1,46.3,18.3,46.6,18.6,46.7z M43.7,53.8c-0.1,0-0.1,0.1-0.2,0.1l0,0c0,0.1-0.1,0.1-0.1,0.2
	l0,0l-4.1,14.4L33.7,51l40.1-18.2L43.7,53.8z M41,68.6l3.7-13.2l6.9,2.3L41,68.6z M61.7,59.6l-15.9-5.3l32.8-22.8L61.7,59.6z
	 M71.8,32.1L45.6,44l-12.8,5.8L21.5,46L71.8,32.1z"/>
</svg>
