<?xml version="1.0" encoding="utf-8"?>
<!-- Generator: Adobe Illustrator 19.2.1, SVG Export Plug-In . SVG Version: 6.00 Build 0)  -->
<svg version="1.1" id="Calque_1" xmlns="http://www.w3.org/2000/svg" xmlns:xlink="http://www.w3.org/1999/xlink" x="0px" y="0px"
	 viewBox="0 0 100 100" style="enable-background:new 0 0 100 100;" xml:space="preserve">
<path d="M23.6,68.3L23.6,68.3c0,0.1,0,0.2,0.1,0.3l0,0c0,0.1,0.1,0.1,0.1,0.2c0,0,0,0,0.1,0.1c0,0,0,0,0.1,0.1h0.1h0.1
	c0.1,0,0.2,0.1,0.3,0.1c0.1,0,0.2,0,0.4-0.1l0,0l8.2-4.8l2.2,5.1c0.1,0.2,0.3,0.4,0.5,0.4c0.1,0,0.1,0,0.2,0c0.2,0,0.3,0,0.5-0.1
	l52.5-38l0,0l0,0c0,0,0,0,0.1-0.1l0,0l0.1-0.1l0,0v-0.1c0-0.1,0-0.1,0.1-0.2l0,0V31c0-0.1,0-0.1,0-0.2l0,0l0,0l0,0c0,0,0,0,0-0.1
	v-0.1c0,0,0,0,0-0.1c0,0,0,0,0-0.1c0,0,0,0-0.1,0l-0.1-0.1c0,0,0,0-0.1,0c0,0,0,0-0.1,0h-0.1h-0.1l0,0c-0.1,0-0.1,0-0.2,0h-0.1
	l-77.1,17c-0.4,0.1-0.6,0.4-0.6,0.8c0,0.4,0.4,0.7,0.8,0.7L23.7,49v19.3H23.6z M27.6,49.4L27.6,49.4c-0.1,0.1-0.2,0.1-0.2,0.1
	l-0.1,0.1l-0.1,0.1l0,0v0.1v0.1L25.3,60V48.7l29.6-7.9L27.6,49.4z M25.5,66.8l2.7-14.1l4.3,10L25.5,66.8z M36.2,67.9l-7.3-17.3
	l55.3-17.5L36.2,67.9z M55.1,39.1l-15.6,4.2l-15.2,4.1l-6.2-0.1L55.1,39.1z"/>
</svg>
