<?xml version="1.0" encoding="utf-8"?>
<!-- Generator: Adobe Illustrator 19.2.1, SVG Export Plug-In . SVG Version: 6.00 Build 0)  -->
<svg version="1.1" id="Calque_1" xmlns="http://www.w3.org/2000/svg" xmlns:xlink="http://www.w3.org/1999/xlink" x="0px" y="0px"
	 viewBox="0 0 100 100" style="enable-background:new 0 0 100 100;" xml:space="preserve">
<path d="M87.4,39.1L87.4,39.1C87.4,39,87.4,39,87.4,39.1C87.4,39,87.4,39,87.4,39.1L87.4,39.1L87.4,39.1L87.4,39.1L87.4,39.1
	L87.4,39.1c0-0.1,0-0.1,0-0.2c0,0,0-0.1-0.1-0.1l0,0l0,0l0,0c0,0,0,0-0.1,0c0,0,0,0-0.1,0l0,0l0,0c0,0,0,0-0.1,0c0,0,0,0-0.1,0
	c0,0,0,0-0.1,0l0,0l0,0l0,0l0,0l-55-4.6c-0.3,0-0.5,0.1-0.6,0.3L29,34.3c-0.3,0-0.6,0.1-0.8,0.4l-6,12.4l0,0c0,0.1-0.1,0.2-0.1,0.3
	l0,0c0,0.1,0,0.2,0.1,0.3l1.2,2.3h-2.5c-0.2,0-0.4,0.2-0.6,0.4l-7.7,14.7c-0.1,0.3-0.1,0.6,0.1,0.9c0.1,0.2,0.4,0.3,0.6,0.3
	c0.1,0,0.2,0,0.3,0l2.8-1c0.1,0,0.2,0.1,0.3,0.1c0.1,0,0.2,0,0.3,0l11.5-4.2l2.9,3.5c0.2,0.2,0.4,0.3,0.6,0.3c0.1,0,0.2,0,0.3-0.1
	l54.6-25l0,0l0,0c0,0,0,0,0.1-0.1c0,0,0.1,0,0.1-0.1l0,0l0,0c0,0,0,0,0-0.1c0,0,0-0.1,0.1-0.1l0,0l0,0l0,0l0,0v-0.1
	C87.4,39.2,87.4,39.2,87.4,39.1C87.4,39.2,87.4,39.1,87.4,39.1L87.4,39.1L87.4,39.1L87.4,39.1L87.4,39.1z M78.9,39.3l-35.5,4.4
	l-9.1-7.9L78.9,39.3z M44.7,46l-0.4-0.9l15.9-1.9L44.7,46z M29.3,35.4l2.4,0.2l9.6,8.3L24.1,46L29.3,35.4z M24,47.6l18.7-2.3
	l0.4,0.9L25,49.3L24,47.6z M21.5,51.5L40,48.3l-22.8,15l-2.3,0.8L21.5,51.5z M43.8,47.7l34-6.2l-55.1,20L43.8,47.7z M32.2,63.2
	L30,60.5l39-14.1L32.2,63.2z"/>
</svg>
