<?xml version="1.0" encoding="utf-8"?>
<!-- Generator: Adobe Illustrator 19.2.1, SVG Export Plug-In . SVG Version: 6.00 Build 0)  -->
<svg version="1.1" id="Calque_1" xmlns="http://www.w3.org/2000/svg" xmlns:xlink="http://www.w3.org/1999/xlink" x="0px" y="0px"
	 viewBox="0 0 100 100" style="enable-background:new 0 0 100 100;" xml:space="preserve">
<path d="M74.2,81.4l-6.8-51.5c0-0.2-0.1-0.4-0.3-0.5L53.6,17.9c-0.3-0.2-0.7-0.2-1,0l-9.5,8.3l0,0C43,26.3,43,26.3,43,26.4l0,0l0,0
	l-0.7,1.7L41.5,27c-0.1-0.1-0.2-0.2-0.3-0.3l-14.3-7.6c-0.3-0.1-0.6-0.1-0.8,0c-0.2,0.2-0.4,0.5-0.3,0.7l2,14.6
	c0,0.2,0.1,0.3,0.2,0.4l7.4,7.7l-1.2,3.9c-0.1,0.3,0,0.6,0.2,0.8L73,82.1l0,0c0,0,0.1,0,0.1,0.1c0,0,0,0,0.1,0c0,0,0,0,0.1,0l0,0
	c0,0,0,0,0.1,0s0.1,0,0.2,0l0,0l0,0l0,0h0.1c0,0,0,0,0.1,0h0.1c0,0,0,0,0.1,0l0,0l0,0l0,0l0,0c0,0,0,0,0.1-0.1l0,0l0,0l0,0l0,0
	c0,0,0-0.1,0.1-0.1v-0.1l0,0l0,0v-0.1C74.2,81.5,74.2,81.5,74.2,81.4L74.2,81.4L74.2,81.4L74.2,81.4L74.2,81.4z M53.1,19.5
	l12.8,10.9l6.3,47.1L44.6,27L53.1,19.5z M43.7,28.6l12.2,22.3L43.2,29.8L43.7,28.6z M27.5,21.1L40.3,28l28.9,47.9L29.3,34L27.5,21.1
	z M36.6,43.9l22.3,23.4L35.8,46.5L36.6,43.9z"/>
</svg>
