<?xml version="1.0" encoding="utf-8"?>
<!-- Generator: Adobe Illustrator 19.2.1, SVG Export Plug-In . SVG Version: 6.00 Build 0)  -->
<svg version="1.1" id="Calque_1" xmlns="http://www.w3.org/2000/svg" xmlns:xlink="http://www.w3.org/1999/xlink" x="0px" y="0px"
	 viewBox="0 0 100 100" style="enable-background:new 0 0 100 100;" xml:space="preserve">
<path d="M81.2,72C81.2,72,81.2,71.9,81.2,72c0-0.1,0-0.1,0-0.2v-0.1v-0.1l0,0L53,27.6c-0.1-0.2-0.3-0.3-0.5-0.3s-0.4,0-0.6,0.2
	L39.5,37.6l0,0c-0.1,0.1-0.1,0.1-0.2,0.2c0,0,0,0,0,0.1s-0.1,0.2-0.1,0.3v9l-6.4-3.7c-0.3-0.2-0.6-0.1-0.9,0.1
	c-12.8,11.3-13,11.7-13.1,12c-0.1,0.2,0,0.4,0.1,0.6c0.1,0.2,0.3,0.3,0.5,0.4l60.9,16.1c0.1,0,0.1,0,0.2,0s0.2,0,0.2,0l0,0
	c0,0,0,0,0.1,0c0,0,0.1,0,0.1-0.1l0,0l0,0l0,0l0,0l0,0v-0.1v-0.1l0,0l0,0v-0.1C81.2,72.2,81.2,72.1,81.2,72
	C81.2,72.1,81.2,72,81.2,72z M52,29.1l25.1,39.1l-35.9-30L52,29.1z M40.7,39.9l32.3,27L40.7,48.2V39.9z M21,55.5
	c2.1-2,7.6-6.9,11.5-10.3l42.6,24.6L21,55.5z"/>
</svg>
