<?xml version="1.0" encoding="utf-8"?>
<!-- Generator: Adobe Illustrator 19.2.1, SVG Export Plug-In . SVG Version: 6.00 Build 0)  -->
<svg version="1.1" id="Calque_1" xmlns="http://www.w3.org/2000/svg" xmlns:xlink="http://www.w3.org/1999/xlink" x="0px" y="0px"
	 viewBox="0 0 100 100" style="enable-background:new 0 0 100 100;" xml:space="preserve">
<path d="M33,52.5l1.9,11.9l0,0c0,0.1,0,0.1,0.1,0.2v0.1l0.1,0.1l0.1,0.1l0,0c0,0,0.1,0,0.1,0.1c0,0,0.1,0,0.1,0.1c0.1,0,0.1,0,0.2,0
	c0,0,0,0,0.1,0h0.1c0,0,0,0,0.1,0s0.1,0,0.2-0.1c0,0,0.1,0,0.1-0.1l0,0l6.4-5.2l12.9,13.4c0.1,0.2,0.3,0.2,0.6,0.2h0.1
	c0.2,0,0.5-0.2,0.6-0.4l24.5-45.1c0,0,0,0,0-0.1c0,0,0,0,0-0.1c0,0,0,0,0-0.1l0,0l0,0c0,0,0,0,0-0.1v-0.1c0,0,0,0,0-0.1
	c0,0,0,0,0-0.1c0,0,0,0,0-0.1c0,0,0,0,0-0.1l0,0l0,0l0,0l0,0l0,0l0,0l0,0c0,0,0-0.1-0.1-0.1l0,0l0,0c0,0,0,0-0.1,0l0,0
	c0,0,0,0-0.1,0c0,0,0,0-0.1,0c0,0,0,0-0.1,0l0,0l0,0c0,0,0,0-0.1,0h-0.1h-0.1c0,0,0,0-0.1,0l0,0L22.1,40.1l0,0l0,0l-2.7,0.6
	c-0.3,0.1-0.5,0.3-0.6,0.6s0.1,0.6,0.3,0.8L33,52.5z M52,41.6c-12.6-0.7-19.9-1.1-24.1-1.3l46.9-10.8L52,41.6z M70.2,33.7L55.7,43.9
	l0,0l-3.1,2.2l0.3-3.3L70.2,33.7z M62.8,40.8L78.2,30L57.8,67.6L57,45L62.8,40.8z M51.3,43.7L51,47.3l-11.4,8.1
	c-0.1,0.1-0.2,0.2-0.2,0.3l0,0L36.2,62l-1.5-9.4L51.3,43.7z M38.1,61.4l2.1-4.1l1.3,1.3L38.1,61.4z M55.8,71.2L41.2,56.1L55.5,46
	l0.9,24.3L55.8,71.2z M22.4,41.6c1.2,0,17.9,0.9,27,1.4l-15.6,8.2l-12.5-9.4L22.4,41.6z"/>
</svg>
