<?xml version="1.0" encoding="utf-8"?>
<!-- Generator: Adobe Illustrator 19.2.1, SVG Export Plug-In . SVG Version: 6.00 Build 0)  -->
<svg version="1.1" id="Calque_1" xmlns="http://www.w3.org/2000/svg" xmlns:xlink="http://www.w3.org/1999/xlink" x="0px" y="0px"
	 viewBox="0 0 100 100" style="enable-background:new 0 0 100 100;" xml:space="preserve">
<path d="M86.7,64.8L86.7,64.8v-0.2l0,0l0,0v-0.1c0,0,0-0.1-0.1-0.1l0,0l0,0c0,0,0,0-0.1-0.1l0,0L43,34.5c-0.2-0.1-0.4-0.2-0.6-0.1
	l-13.2,3.3c-0.1,0-0.2,0.1-0.2,0.1l0,0l0,0c-0.1,0.1-0.2,0.1-0.2,0.2l0,0c0,0.1-0.1,0.2-0.1,0.3c0,0,0,0,0,0.1l0,0v3.7l-6.2-2.4
	c-0.3-0.1-0.7,0-0.9,0.3l-8.1,10.9c-0.2,0.2-0.2,0.5-0.1,0.7c0.1,0.2,0.3,0.4,0.6,0.5l12.2,2.3l2.6,7.6c0.1,0.3,0.4,0.5,0.7,0.5
	l56.6,3.1l0,0l0,0l0,0l0,0l0,0l0,0l0,0l0,0c0.1,0,0.1,0,0.2,0l0,0c0,0,0,0,0.1,0l0,0l0,0l0,0c0,0,0,0,0.1,0l0,0c0,0,0,0,0.1-0.1
	c0,0,0,0,0.1-0.1l0,0l0,0l0,0l0,0l0,0l0,0l0,0c0,0,0,0,0-0.1c0,0,0,0,0-0.1C86.7,65,86.7,65,86.7,64.8
	C86.7,64.9,86.7,64.9,86.7,64.8C86.7,64.9,86.7,64.9,86.7,64.8C86.7,64.9,86.7,64.9,86.7,64.8z M42.5,36l35.3,24.2L48.9,46.7
	l-17.2-8L42.5,36z M30.2,39.6l36.1,16.9L30.2,42.7V39.6z M22.4,41.4l55.3,21.1L15.4,50.9L22.4,41.4z M27.8,54.8l46.3,8.7L30,61
	L27.8,54.8z"/>
</svg>
